<?xml version="1.0" standalone="no"?>
<!DOCTYPE svg PUBLIC "-//W3C//DTD SVG 20010904//EN"
 "http://www.w3.org/TR/2001/REC-SVG-20010904/DTD/svg10.dtd">
<svg version="1.0" xmlns="http://www.w3.org/2000/svg"
 width="500.000000pt" height="500.000000pt" viewBox="0 0 500.000000 500.000000"
 preserveAspectRatio="xMidYMid meet">
<metadata>
Created by potrace 1.14, written by Peter Selinger 2001-2017
</metadata>
<g transform="translate(0.000000,500.000000) scale(0.100000,-0.100000)"
fill="#000000" stroke="none">
<path d="M0 2500 l0 -2500 2500 0 2500 0 0 2500 0 2500 -2500 0 -2500 0 0
-2500z m2517 2273 c4 -9 1 -119 -5 -243 -7 -124 -17 -353 -22 -510 -12 -318
-20 -363 -62 -368 -49 -6 -53 22 -51 312 3 326 14 457 53 622 42 184 68 238
87 187z m153 -1050 c53 -27 103 -79 146 -149 48 -81 56 -108 58 -189 1 -70 -2
-84 -23 -112 l-25 -33 22 -23 c14 -15 22 -36 22 -60 0 -34 -2 -37 -30 -37 -18
0 -37 8 -47 20 -38 43 -45 11 -11 -46 20 -35 60 -75 178 -184 25 -23 83 -78
131 -123 47 -45 126 -120 177 -166 63 -58 92 -91 92 -106 0 -29 14 -40 77 -58
28 -9 77 -32 108 -51 30 -20 58 -36 61 -36 20 0 163 -117 242 -199 92 -94 160
-195 182 -269 7 -20 14 -103 17 -184 l6 -148 36 22 c30 19 50 23 131 23 104 0
127 -8 169 -58 71 -84 79 -182 23 -261 -39 -54 -40 -70 -7 -92 14 -9 42 -41
62 -71 28 -43 36 -66 40 -116 10 -116 -35 -237 -87 -237 -36 0 -42 23 -34 144
8 130 3 142 -61 192 l-36 27 -68 -28 -69 -27 -44 23 c-68 38 -65 90 9 146 28
21 51 29 97 33 57 5 62 7 78 39 9 19 22 39 27 44 19 19 12 65 -16 97 -25 31
-29 32 -87 28 -34 -3 -86 -12 -118 -22 l-56 -17 5 -58 c6 -67 -32 -268 -75
-396 -29 -85 -63 -129 -130 -165 -20 -11 -44 -24 -52 -30 -38 -23 -190 -90
-230 -100 -25 -7 -81 -30 -125 -51 -43 -21 -85 -39 -93 -39 -8 0 -26 -7 -40
-14 -46 -25 -124 -56 -141 -56 -9 0 -73 -14 -141 -31 -238 -58 -260 -60 -635
-64 l-349 -3 -47 -35 c-26 -19 -58 -38 -71 -42 -13 -4 -30 -13 -38 -19 -26
-21 -91 -56 -103 -56 -7 0 -45 -16 -86 -35 -40 -19 -87 -35 -104 -35 -38 0
-67 25 -67 59 1 27 31 71 49 71 15 0 14 17 -3 48 -18 34 -66 175 -66 194 0 23
-69 73 -177 129 -105 55 -151 92 -189 152 l-24 37 -73 0 c-141 0 -352 60 -345
97 4 22 64 31 236 32 l122 1 0 38 c0 45 14 62 50 62 29 0 69 -38 88 -82 6 -16
18 -28 27 -28 29 0 57 -39 50 -70 -9 -41 26 -85 84 -105 25 -8 66 -29 91 -45
69 -46 73 -44 105 71 18 65 59 113 76 89 6 -9 9 -70 6 -157 -3 -79 -1 -160 5
-180 5 -21 13 -60 18 -86 5 -27 22 -68 38 -91 l28 -44 87 42 c61 29 87 47 89
61 2 14 27 32 80 58 59 30 94 57 152 117 41 43 86 96 100 117 44 65 86 116 86
105 0 -6 11 -24 25 -41 20 -23 24 -36 19 -58 -17 -68 -80 -173 -119 -199 -14
-9 -25 -23 -25 -32 0 -13 24 -14 203 -9 111 4 263 14 337 22 126 13 344 60
389 84 11 6 30 11 44 11 13 0 65 20 116 45 51 25 97 45 102 45 6 0 34 11 62
24 29 13 70 29 92 36 83 26 219 98 257 137 32 33 64 122 74 208 3 33 15 94 26
135 19 67 20 94 15 257 -8 249 -26 319 -107 418 -58 71 -176 179 -263 241 -63
45 -218 114 -305 135 -79 20 -112 40 -112 69 0 9 -11 37 -24 62 l-24 45 36 -8
c21 -5 48 -9 62 -9 23 0 20 5 -30 51 -30 28 -93 88 -140 133 -47 44 -130 122
-184 171 -97 88 -141 143 -161 197 -21 58 -29 26 -27 -110 1 -75 7 -186 14
-245 10 -99 13 -110 34 -119 16 -8 24 -20 24 -37 0 -15 12 -44 26 -65 l27 -39
-32 6 c-40 8 -40 1 0 -113 24 -71 28 -93 19 -109 -31 -60 -100 9 -120 120 -17
93 -33 125 -66 133 -46 12 -228 34 -236 29 -5 -2 -8 -45 -8 -94 0 -102 -10
-129 -45 -129 -39 0 -46 29 -44 165 2 108 0 127 -15 144 -17 19 -17 21 -2 36
14 15 16 44 14 233 l-3 217 -32 3 c-29 3 -33 -1 -57 -52 -14 -30 -26 -59 -26
-65 0 -5 -15 -38 -34 -73 -18 -35 -37 -74 -41 -88 -4 -14 -25 -63 -45 -110
-21 -47 -41 -109 -45 -138 -4 -28 -12 -55 -18 -60 -7 -4 -28 -38 -47 -75 -33
-65 -54 -87 -81 -87 -9 0 -10 17 -6 65 7 76 16 73 -121 45 -162 -33 -185 -40
-231 -71 -24 -16 -48 -29 -53 -29 -5 0 -46 -17 -91 -39 -45 -21 -98 -46 -119
-54 -83 -36 -192 -281 -227 -514 -17 -110 -16 -111 27 -119 54 -10 81 -33 82
-70 0 -53 -61 -64 -248 -45 -40 4 -75 4 -77 1 -2 -4 4 -30 15 -58 29 -77 53
-224 46 -277 -9 -54 -42 -83 -74 -66 -39 21 -55 101 -56 284 -1 101 2 171 8
174 5 4 50 16 100 27 l91 22 1 159 c1 189 8 243 39 310 13 28 35 76 49 109 14
32 40 75 58 94 44 51 155 122 214 136 15 4 56 24 93 44 140 79 307 124 475
126 l59 1 27 80 c32 95 78 204 126 299 19 38 34 76 34 85 0 10 6 23 13 30 9
10 9 15 0 18 -29 10 -95 66 -105 88 -19 43 -1 94 50 142 63 58 123 79 276 98
133 17 175 11 119 -17 -149 -76 -155 -80 -132 -92 25 -13 59 -71 59 -102 0
-28 17 -34 89 -34 83 0 157 16 228 50 57 26 63 32 63 59 0 27 4 31 26 31 25 0
26 2 21 38 -14 85 -57 148 -170 250 -27 25 -32 60 -12 82 24 26 33 25 95 -7z
m-794 -2033 c-7 -53 -73 -191 -130 -270 -19 -26 -41 -61 -50 -78 -16 -30 -15
-31 17 -53 76 -54 156 -133 162 -160 11 -47 -2 -69 -38 -69 -26 0 -49 15 -124
85 -85 79 -94 85 -113 73 -12 -7 -31 -29 -42 -48 -12 -19 -39 -54 -62 -77 -33
-36 -46 -43 -78 -43 -31 0 -41 5 -50 25 -10 22 -8 33 11 73 13 25 31 52 42 60
11 7 26 26 34 42 8 16 27 41 41 55 l26 26 -110 112 c-61 61 -109 113 -107 115
10 10 80 -24 131 -64 32 -24 61 -44 66 -44 5 0 20 -12 34 -27 l25 -27 40 44
c21 24 39 49 39 56 0 26 152 204 193 226 47 25 50 23 43 -32z m1350 -166 c46
-30 99 -102 121 -165 11 -35 13 -68 7 -159 -9 -157 -41 -264 -112 -371 -23
-36 -42 -69 -42 -74 0 -19 -35 -45 -61 -45 -36 0 -59 24 -59 61 0 31 13 63 60
144 56 97 62 118 73 245 12 144 3 222 -38 314 -36 82 -21 97 51 50z m462 -166
c17 -22 62 -169 62 -205 0 -40 -22 -88 -45 -97 -30 -11 -65 37 -66 91 -3 107
4 208 15 215 16 11 22 10 34 -4z m-824 -276 c0 -83 -2 -92 -48 -187 -27 -55
-55 -108 -63 -117 -9 -10 -30 -46 -47 -80 -30 -61 -32 -63 -74 -66 -38 -3 -43
-1 -53 25 -10 25 -6 37 27 103 21 41 46 84 56 96 10 11 32 56 49 100 17 43 43
103 60 131 16 29 29 58 29 65 0 6 8 20 17 30 15 17 18 17 32 3 12 -12 16 -37
15 -103z"/>
<path d="M2123 3307 c-36 -24 -41 -42 -16 -51 11 -4 25 4 44 26 45 53 31 65
-28 25z"/>
<path d="M2539 3108 c-1 -7 0 -88 1 -179 2 -140 0 -168 -14 -181 -23 -23 -54
-11 -65 26 -5 17 -13 88 -17 159 -3 70 -10 127 -14 127 -14 0 -27 -25 -41 -77
-12 -48 -14 -51 -29 -38 -9 8 -20 12 -23 8 -4 -3 -7 -71 -7 -150 l0 -144 38
-16 c42 -17 196 -30 204 -17 3 5 -1 50 -9 99 -13 81 -14 331 -2 374 2 7 -2 16
-8 18 -7 3 -14 -1 -14 -9z"/>
</g>
</svg>
